<?xml version="1.0" encoding="UTF-8" standalone="no"?>
<!-- Created with Inkscape (http://www.inkscape.org/) -->

<svg
   xmlns:dc="http://purl.org/dc/elements/1.1/"
   xmlns:cc="http://creativecommons.org/ns#"
   xmlns:rdf="http://www.w3.org/1999/02/22-rdf-syntax-ns#"
   xmlns:svg="http://www.w3.org/2000/svg"
   xmlns="http://www.w3.org/2000/svg"
   xmlns:sodipodi="http://sodipodi.sourceforge.net/DTD/sodipodi-0.dtd"
   xmlns:inkscape="http://www.inkscape.org/namespaces/inkscape"
   id="svg2"
   version="1.1"
   inkscape:version="0.92.4 5da689c313, 2019-01-14"
   width="429"
   height="245"
   viewBox="0 0 429 245"
   sodipodi:docname="O-MI.svg">
  <metadata
     id="metadata8">
    <rdf:RDF>
      <cc:Work
         rdf:about="">
        <dc:format>image/svg+xml</dc:format>
        <dc:type
           rdf:resource="http://purl.org/dc/dcmitype/StillImage" />
        <dc:title></dc:title>
      </cc:Work>
    </rdf:RDF>
  </metadata>
  <defs
     id="defs6" />
  <sodipodi:namedview
     pagecolor="#ffffff"
     bordercolor="#666666"
     borderopacity="1"
     objecttolerance="10"
     gridtolerance="10"
     guidetolerance="10"
     inkscape:pageopacity="0"
     inkscape:pageshadow="2"
     inkscape:window-width="1598"
     inkscape:window-height="886"
     id="namedview4"
     showgrid="false"
     inkscape:zoom="2.3706674"
     inkscape:cx="257.36671"
     inkscape:cy="144.78832"
     inkscape:window-x="1050"
     inkscape:window-y="12"
     inkscape:window-maximized="0"
     inkscape:current-layer="svg2" />
  <text
     xml:space="preserve"
     style="font-style:normal;font-variant:normal;font-weight:normal;font-stretch:normal;line-height:0%;font-family:FreeSans;-inkscape-font-specification:FreeSans;letter-spacing:0px;word-spacing:0px;fill:#16667f;fill-opacity:1;stroke:none;stroke-width:1px;stroke-linecap:butt;stroke-linejoin:miter;stroke-opacity:1"
     x="-0.53447175"
     y="37.104813"
     id="text3354"
     transform="scale(1.0055803,0.99445067)"><tspan
       sodipodi:role="line"
       id="tspan3356"
       x="-0.53447175"
       y="37.104813"
       style="font-size:17.81572533px;line-height:1.25">TM</tspan></text>
  <path
     style="fill:#0c84a2;fill-opacity:1;stroke:#0c84a2;stroke-width:0.31882712;stroke-opacity:1"
     d="m 274.95909,55.67895 v 56.27344 56.27344 h 10.30859 10.31055 l 0.21094,-20.80274 c 0.11634,-11.44191 0.21274,-31.32264 0.21289,-44.17773 1.6e-4,-14.37674 0.11396,-23.3025 0.29687,-23.18945 0.16356,0.10109 0.46139,1.00648 0.66211,2.01171 0.20071,1.00523 1.35505,5.63045 2.56445,10.27735 1.20939,4.64691 2.42179,9.52467 2.69532,10.83984 0.27352,1.31516 1.41924,5.97746 2.54492,10.36133 3.09861,12.06733 5.90105,23.20779 6.77734,26.94141 0.43214,1.84123 1.82988,7.43597 3.10742,12.43359 1.27755,4.99761 2.63688,10.4856 3.01953,12.19531 l 0.69532,3.10938 h 10.79492 c 10.00519,0 10.80947,-0.0415 10.96484,-0.5586 0.43137,-1.43563 3.34344,-12.80113 3.53321,-13.78906 0.11789,-0.61374 1.34163,-5.56399 2.71875,-11 5.9439,-23.46262 7.35602,-29.10449 7.66601,-30.60742 0.18084,-0.87678 1.38077,-5.68207 2.66602,-10.67969 1.28525,-4.99761 3.03145,-11.90892 3.88086,-15.35937 0.84941,-3.45045 1.65703,-6.20434 1.79492,-6.11914 0.13789,0.0852 0.25195,6.79356 0.25195,14.9082 0,8.11465 0.0944,27.90648 0.21094,43.98047 l 0.21289,29.22461 h 10.30859 10.31055 V 111.95239 55.67895 h -17.01758 -17.01562 l -0.8711,3.42774 c -0.47994,1.88506 -1.80943,6.94209 -2.95312,11.23828 -1.14369,4.2962 -2.53964,9.67742 -3.10156,11.95703 -0.56192,2.27961 -1.92097,7.51588 -3.02149,11.63672 -2.34211,8.76988 -6.29718,23.78899 -8.50195,32.2832 -0.85358,3.28853 -1.69529,5.93105 -1.86914,5.87305 -0.17384,-0.058 -0.43963,-0.66754 -0.58985,-1.35547 -0.15023,-0.68794 -1.25662,-4.83879 -2.45898,-9.22266 -1.20237,-4.38388 -2.34954,-8.68767 -2.55078,-9.56445 -0.34042,-1.48313 -1.43236,-5.58155 -7.34375,-27.57227 -1.2482,-4.64337 -2.68796,-10.13393 -3.19922,-12.20117 -0.51125,-2.06724 -1.56342,-6.01488 -2.33789,-8.77343 -0.77447,-2.75857 -1.56844,-5.62584 -1.76367,-6.3711 l -0.35352,-1.35547 h -16.88672 z m 131.03711,0 v 56.27344 56.27344 h 11.31836 11.31835 V 111.95239 55.67895 H 417.31456 Z M 220.43956,116.8938 v 10.68164 10.67968 h 21.04296 21.04297 V 127.57544 116.8938 h -21.04297 z"
     id="path3358"
     inkscape:connector-curvature="0" />
  <path
     style="fill:#139786;fill-opacity:1;stroke:#139786;stroke-width:0.30367824;stroke-opacity:1"
     d="m 125.8126,0.80395 c -9.77501,-3.9e-4 -21.20777,1.69216 -31.414061,4.73633 -15.306,4.56524 -29.07423,12.48559 -43.88086,25.24609 -7.73243,6.66389 -17.833411,18.48838 -24.453121,28.625 -9.26487,14.18708 -17.3476498,33.26907 -21.1621097,49.95508 -4.90425996,21.45324 -5.43888996,40.69304 -1.6543,59.625 2.7735299,13.87425 7.6292897,24.83926 15.1640597,34.24414 7.08161,8.83925 17.12021,14.51033 28.949221,16.35352 3.71601,0.57905 10.8491,0.57255 14.33398,-0.0137 5.26276,-0.88529 10.53787,-2.99963 14.5,-5.81055 1.05521,-0.74862 1.87537,-1.40443 1.82227,-1.45703 -0.0531,-0.0526 -1.87362,0.49318 -4.04492,1.21289 -5.81908,1.92881 -8.86613,2.38917 -14.6543,2.20703 -3.48857,-0.10977 -5.41051,-0.31999 -7.11133,-0.77734 -12.828811,-3.44966 -22.089231,-13.7665 -25.890621,-28.8418 -1.40154,-5.55813 -1.82565,-9.41081 -1.81055,-16.46289 0.04084,-19.05308 6.00425,-43.97486 16.75195,-69.99805 C 49.695889,79.21695 59.016109,62.41236 70.226669,47.41525 86.716109,25.35622 103.87738,12.63491 122.11924,8.9465 c 3.03898,-0.61446 4.34369,-0.70316 10.3125,-0.69336 4.85539,0.008 7.85363,0.16454 10.36133,0.53711 4.24958,0.63136 11.16176,2.30089 14.08399,3.40234 7.07237,2.66575 13.60087,6.76612 20.42187,12.82813 1.37794,1.22461 2.50586,2.11926 2.50586,1.98633 0,-0.66312 -4.25379,-5.77426 -7.03711,-8.45508 C 162.55347,8.71392 148.18881,2.51542 132.2794,1.07931 130.23562,0.89483 128.06837,0.80401 125.8126,0.80392 Z m 19.52344,26.51953 c -7.56704,-0.14957 -14.60138,1.8385 -20.79492,5.9336 -1.67705,1.10885 -5.58186,4.58416 -5.37891,4.78711 0.0601,0.0601 1.41989,-0.76704 3.02149,-1.83789 6.43519,-4.30264 11.57779,-5.98347 18.29492,-5.98047 5.73745,0.003 11.54215,1.41357 16.60351,4.0332 3.144,1.62724 4.84572,2.87212 7.48828,5.48633 7.09064,7.01455 11.56584,19.24949 11.58204,31.66016 0.005,3.79226 -0.92356,13.78943 -1.84766,19.89062 -1.41781,9.36094 -5.40059,26.47682 -8.46289,36.36914 -8.84462,28.57129 -23.43387,57.09536 -38.48047,75.23438 -3.9758,4.79292 -13.56135,14.47669 -17.09961,17.27539 -10.566691,8.35807 -22.291621,13.64107 -33.792971,15.22461 -4.90437,0.67524 -13.66972,0.91172 -17.52734,0.47265 -11.09116,-1.26239 -22.015431,-5.77352 -30.228521,-12.48437 -4.2428,-3.46677 -9.04629,-9.09079 -10.95312,-12.82227 -0.50495,-0.98815 -0.9273,-1.44141 -1.33985,-1.44141 -0.33123,0 -0.60156,0.1388 -0.60156,0.3086 0,0.66744 3.38091,6.99876 5.11133,9.57226 2.16387,3.2181 5.39604,6.87277 8.55469,9.67383 9.89152,8.77169 23.968971,14.50695 39.183591,15.96094 4.41117,0.42155 18.03254,0.15792 22.31055,-0.43164 13.627621,-1.87806 27.541091,-6.68914 39.218751,-13.56055 22.41768,-13.19109 41.65755,-34.52531 54.80469,-60.76953 8.70265,-17.37215 13.37791,-33.08632 15.65429,-52.61719 0.7385,-6.3345 0.73435,-20.65156 -0.008,-27.02734 -2.41021,-20.70575 -8.94829,-35.41952 -21.07031,-47.41211 -6.52514,-6.45546 -12.7022,-10.42008 -20.11328,-12.91406 -4.85789,-1.63478 -9.58868,-2.49424 -14.12891,-2.58399 z"
     id="path3384"
     inkscape:connector-curvature="0" />
</svg>
